<svg width="15" height="15" viewBox="0 0 15 15" fill="none" xmlns="http://www.w3.org/2000/svg">
<path d="M2.33107 0.932427C1.96012 0.932427 1.60437 1.07978 1.34208 1.34208C1.07978 1.60437 0.932427 1.96012 0.932427 2.33107V8.85805C0.932427 9.229 1.07978 9.58475 1.34208 9.84704C1.60437 10.1093 1.96012 10.2567 2.33107 10.2567H4.04052V13.238C4.04052 13.3642 4.18349 13.4381 4.28668 13.3635L8.59324 10.2567H12.5878C12.9587 10.2567 13.3145 10.1093 13.5767 9.84704C13.839 9.58475 13.9864 9.229 13.9864 8.85805V2.33107C13.9864 1.96012 13.839 1.60437 13.5767 1.34208C13.3145 1.07978 12.9587 0.932427 12.5878 0.932427H2.33107ZM0 2.33107C0 1.71283 0.245594 1.11991 0.682754 0.682754C1.11991 0.245594 1.71283 0 2.33107 0H12.5878C13.206 0 13.7989 0.245594 14.2361 0.682754C14.6732 1.11991 14.9188 1.71283 14.9188 2.33107V8.85805C14.9188 9.47629 14.6732 10.0692 14.2361 10.5064C13.7989 10.9435 13.206 11.1891 12.5878 11.1891H8.89473L4.83246 14.12C4.11262 14.6391 3.10809 14.125 3.10809 13.2374V11.1891H2.33107C1.71283 11.1891 1.11991 10.9435 0.682754 10.5064C0.245594 10.0692 0 9.47629 0 8.85805V2.33107Z" fill="black"/>
</svg>
