<svg width="18" height="16" viewBox="0 0 18 16" fill="none" xmlns="http://www.w3.org/2000/svg">
<path d="M9.00003 15.056L8.71203 14.816C2.52003 9.77599 0.840027 7.99999 0.840027 5.11999C0.840027 2.71999 2.76003 0.799988 5.16003 0.799988C7.12803 0.799988 8.23203 1.90399 9.00003 2.76799C9.76803 1.90399 10.872 0.799988 12.84 0.799988C15.24 0.799988 17.16 2.71999 17.16 5.11999C17.16 7.99999 15.48 9.77599 9.28803 14.816L9.00003 15.056ZM5.16003 1.75999C3.28803 1.75999 1.80003 3.24799 1.80003 5.11999C1.80003 7.56799 3.33603 9.19999 9.00003 13.808C14.664 9.19999 16.2 7.56799 16.2 5.11999C16.2 3.24799 14.712 1.75999 12.84 1.75999C11.16 1.75999 10.248 2.76799 9.52803 3.58399L9.00003 4.20799L8.47203 3.58399C7.75203 2.76799 6.84003 1.75999 5.16003 1.75999Z" fill="#DB3737"/>
</svg>
