<svg width="72" height="37" viewBox="0 0 72 37" fill="none" xmlns="http://www.w3.org/2000/svg">
<g clip-path="url(#clip0_438_694)">
<path d="M43.5642 25.3805C44.5027 24.5075 45.5623 23.202 45.6004 21.2431C45.1265 22.8388 43.5059 25.1112 39.1489 28.09C39.1489 28.09 43.9322 21.393 42.3135 17.6388C42.3135 17.6388 43.2068 17.1786 44.9899 18.3231C44.9887 18.3203 44.9878 18.3169 44.9867 18.3136C44.9867 18.3136 47.9608 20.3067 47.4641 22.4838C47.3665 22.9138 47.4348 23.434 48.4697 23.932C48.6774 24.031 49.0464 24.1522 48.9482 24.7168C48.9482 24.7168 48.8478 25.1186 48.6474 25.2723C48.6374 25.2799 48.6258 25.2845 48.6169 25.2934C48.3592 25.5388 48.8066 25.4688 48.9475 25.5138C49.1872 25.5907 49.1931 26.0658 48.8128 26.483C48.8128 26.483 49.4262 27.0965 49.0826 27.6365C49.0826 27.6365 48.9972 27.7338 48.6407 27.6852C48.6407 27.6852 48.915 29.6212 47.4264 29.5741C46.5506 29.5454 44.6419 28.8256 43.9433 29.9547C43.9433 29.9547 41.5758 32.8622 44.4459 36.91C44.4459 36.91 41.1351 35.6839 40.7915 31.9288C40.7921 31.9304 39.7367 28.9372 43.5642 25.3805Z" fill="white"/>
<path d="M3.70693 13.9169H6.155L8.41169 6.14863H8.5045L10.767 13.9169H13.2151L16.6145 2.03531H13.8706L11.904 10.3083H11.7996L9.63575 2.03531H7.28625L5.11662 10.291H5.018L3.05139 2.03531H0.307434L3.70693 13.9169ZM20.9814 14.0909C23.6848 14.0909 25.3671 12.2402 25.3671 9.49612C25.3671 6.73459 23.6848 4.88968 20.9814 4.88968C18.2781 4.88968 16.5957 6.73459 16.5957 9.49612C16.5957 12.2402 18.2781 14.0909 20.9814 14.0909ZM20.993 12.1765C19.7458 12.1765 19.1076 11.0335 19.1076 9.4787C19.1076 7.92388 19.7458 6.77519 20.993 6.77519C22.2171 6.77519 22.8552 7.92388 22.8552 9.4787C22.8552 11.0335 22.2171 12.1765 20.993 12.1765ZM26.974 13.9169H29.4453V8.56787C29.4453 7.58158 30.0718 6.92604 30.8957 6.92604C31.7078 6.92604 32.2531 7.48296 32.2531 8.35899V13.9169H34.649V8.47505C34.649 7.5526 35.1769 6.92604 36.0761 6.92604C36.8651 6.92604 37.4568 7.41918 37.4568 8.41121V13.9169H39.9223V7.92388C39.9223 5.99197 38.7737 4.88968 37.1145 4.88968C35.8092 4.88968 34.794 5.55685 34.4286 6.57793H34.3357C34.0515 5.54525 33.1407 4.88968 31.9167 4.88968C30.7158 4.88968 29.805 5.52785 29.4338 6.57793H29.3293V5.00571H26.974V13.9169ZM45.9352 14.0909C48.1397 14.0909 49.6247 13.0176 49.9728 11.3642L47.6871 11.2134C47.4377 11.8922 46.7996 12.246 45.9758 12.246C44.7402 12.246 43.957 11.428 43.957 10.0995V10.0937H50.025V9.41492C50.025 6.38649 48.1919 4.88968 45.8366 4.88968C43.2144 4.88968 41.5147 6.75196 41.5147 9.50193C41.5147 12.3273 43.1913 14.0909 45.9352 14.0909ZM43.957 8.56206C44.0092 7.54679 44.7808 6.73459 45.8772 6.73459C46.9504 6.73459 47.693 7.50038 47.6988 8.56206H43.957ZM54.1091 8.76512C54.1149 7.61644 54.7994 6.9434 55.7972 6.9434C56.7892 6.9434 57.3868 7.5932 57.381 8.68392V13.9169H59.8522V8.243C59.8522 6.16599 58.634 4.88968 56.7776 4.88968C55.4549 4.88968 54.4977 5.53945 54.0975 6.57793H53.993V5.00571H51.6378V13.9169H54.1091V8.76512ZM65.4431 14.0909C66.4814 14.0909 67.6068 13.8009 68.4829 13.1163L69.2023 13.9169H71.7779L69.9912 11.869C70.6526 10.9929 71.07 9.73398 71.07 8.12114H69.0226C69.0226 8.89854 68.8308 9.58894 68.518 10.1749L66.557 7.92388L67.2528 7.42499C68.2511 6.70555 68.8308 5.80052 68.8308 4.68081C68.8308 3.16081 67.6534 1.87866 65.7451 1.87866C63.7956 1.87866 62.502 3.20722 62.502 4.93028C62.502 5.98617 63.0127 6.86801 63.6335 7.65704C62.3393 8.54463 61.4692 9.38588 61.4692 10.7609C61.4692 12.6347 62.9715 14.0909 65.4431 14.0909ZM67.1488 11.6311C66.6496 11.9386 66.1044 12.1068 65.5648 12.1068C64.5325 12.1068 63.8652 11.4686 63.8652 10.6216C63.8652 10.1691 64.1726 9.64697 64.8284 9.17125L64.898 9.12485L67.1488 11.6311ZM65.3675 6.5141C64.927 5.95716 64.6191 5.46403 64.6191 4.9709C64.6191 4.37334 65.0716 3.8744 65.762 3.8686C66.4584 3.8628 66.8529 4.35013 66.8529 4.82006C66.8529 5.31899 66.58 5.7309 65.9883 6.10803L65.3675 6.5141ZM5.01219 29.8231C7.38487 29.8231 8.87576 28.4307 8.9918 26.3828H6.65973C6.5147 27.3342 5.88817 27.868 5.0412 27.868C3.88677 27.868 3.13842 26.8991 3.13842 25.1935C3.13842 23.511 3.89256 22.5479 5.0412 22.5479C5.94619 22.5479 6.52632 23.1455 6.65973 24.0332H8.9918C8.88737 21.9736 7.32685 20.6218 5.0006 20.6218C2.29724 20.6218 0.626498 22.4957 0.626498 25.2283C0.626498 27.9376 2.26823 29.8231 5.01219 29.8231ZM13.0454 17.7674H10.5741V29.649H13.0454V17.7674ZM20.7392 25.8548C20.745 27.0499 19.927 27.6765 19.0394 27.6765C18.1055 27.6765 17.5021 27.0209 17.4963 25.9709V20.7378H15.025V26.4118C15.0309 28.4945 16.2491 29.7651 18.0417 29.7651C19.3817 29.7651 20.3448 29.0747 20.745 28.0304H20.8378V29.649H23.2105V20.7378H20.7392V25.8548ZM25.2337 29.649H27.6702V28.2218H27.7804C28.1227 28.9645 28.871 29.7941 30.3097 29.7941C32.3401 29.7941 33.9238 28.187 33.9238 25.205C33.9238 22.1418 32.2705 20.6218 30.3155 20.6218C28.8246 20.6218 28.1111 21.5094 27.7804 22.2346H27.705V17.7674H25.2337V29.649ZM27.6528 25.1935C27.6528 23.6038 28.3257 22.5885 29.5266 22.5885C30.7506 22.5885 31.4003 23.6502 31.4003 25.1935C31.4003 26.7483 30.739 27.8273 29.5266 27.8273C28.3373 27.8273 27.6528 26.7831 27.6528 25.1935Z" fill="white"/>
</g>
<defs>
<clipPath id="clip0_438_694">
<rect width="72" height="36.91" fill="white"/>
</clipPath>
</defs>
</svg>
