<svg width="17" height="17" viewBox="0 0 17 17" fill="none" xmlns="http://www.w3.org/2000/svg">
<path d="M16.3824 0.817139L12.9294 0.0202805C12.5542 -0.0660458 12.169 0.129848 12.0163 0.481794L10.4226 4.20047C10.2831 4.52585 10.3761 4.90768 10.6517 5.13013L12.6638 6.77697C11.4685 9.3236 9.38004 11.4419 6.78029 12.6604L5.13344 10.6484C4.90767 10.3728 4.52916 10.2798 4.20378 10.4193L0.485102 12.013C0.129835 12.169 -0.0660591 12.5542 0.0202673 12.9294L0.817126 16.3824C0.900132 16.741 1.21888 17 1.59406 17C10.0972 17 17 10.1105 17 1.59408C17 1.22221 16.7443 0.900145 16.3824 0.817139Z" fill="white"/>
</svg>
